<svg width="780" height="212" viewBox="0 0 780 212" fill="none" xmlns="http://www.w3.org/2000/svg">
<path d="M0 18.2793C0 8.33819 8.05888 0.279297 18 0.279297H198.141C199.53 0.279297 200.496 1.66011 200.02 2.96482L187.217 38.0557C184.913 44.3702 178.908 48.5715 172.186 48.5715H64.6071C61.3634 48.5715 58.7338 51.2011 58.7338 54.4449V81.2014H112.247V65.5812C112.247 64.4767 113.142 63.5812 114.247 63.5812H117.321C118.259 63.5812 119.167 63.9106 119.886 64.5118L165.695 102.79C166.15 103.17 166.412 103.732 166.412 104.325V106V108.934C166.412 109.553 166.126 110.137 165.636 110.516L131.825 136.672L157.929 136.02V199.721C157.929 206.348 152.556 211.721 145.929 211.721H50.25V147.766H97.8896V165.386H120.078L157.929 136.02L131.825 136.672L119.221 146.875C118.509 147.452 117.62 147.766 116.704 147.766H114.247C113.142 147.766 112.247 146.871 112.247 145.766V126.883H58.0812L28.7143 149.072V211.721H12C5.37258 211.721 0 206.348 0 199.721V18.2793Z" fill="#001C43"/>
<path d="M74.7338 126.883L90.8896 81.2014H112.247V65.5813C112.247 64.4767 113.142 63.5813 114.247 63.5813H117.321C118.259 63.5813 119.167 63.9108 119.886 64.5123L166.249 103.267C166.704 103.647 166.966 104.209 166.966 104.802V106.466V109.38C166.966 110.001 166.678 110.586 166.187 110.965L132.379 137.003L157.929 136.02V199.721C157.929 206.348 152.556 211.721 145.929 211.721H50.25V147.766H97.8896V165.386H120.078L157.929 136.02L132.379 137.003L119.773 147.163C119.062 147.736 118.176 148.048 117.263 148.048H114.247C113.142 148.048 112.247 147.153 112.247 146.048V126.883H74.7338Z" fill="#F7560E"/>
<path d="M215.35 162V50H289.507V69.5234H239.03V96.2109H284.585V115.734H239.03V162H215.35ZM322.134 50V162H298.837V50H322.134ZM349.019 193.5C346.066 193.5 343.295 193.263 340.706 192.789C338.154 192.352 336.04 191.786 334.362 191.094L339.612 173.703C342.347 174.542 344.808 174.997 346.995 175.07C349.219 175.143 351.133 174.633 352.737 173.539C354.378 172.445 355.709 170.586 356.73 167.961L358.097 164.406L327.964 78H352.464L369.855 139.687H370.73L388.284 78H412.948L380.3 171.078C378.732 175.599 376.599 179.536 373.902 182.891C371.24 186.281 367.868 188.888 363.784 190.711C359.701 192.57 354.779 193.5 349.019 193.5ZM463.39 78V95.5H412.804V78H463.39ZM424.288 57.875H447.585V136.187C447.585 138.339 447.913 140.016 448.57 141.219C449.226 142.385 450.137 143.206 451.304 143.68C452.507 144.154 453.893 144.391 455.46 144.391C456.554 144.391 457.648 144.299 458.742 144.117C459.835 143.898 460.674 143.734 461.257 143.625L464.921 160.961C463.755 161.326 462.114 161.745 459.999 162.219C457.885 162.729 455.314 163.039 452.288 163.148C446.674 163.367 441.752 162.62 437.523 160.906C433.33 159.193 430.067 156.531 427.734 152.922C425.4 149.312 424.252 144.755 424.288 139.25V57.875ZM517.085 78V95.5H466.5V78H517.085ZM477.984 57.875H501.281V136.187C501.281 138.339 501.609 140.016 502.265 141.219C502.921 142.385 503.833 143.206 505 143.68C506.203 144.154 507.588 144.391 509.156 144.391C510.25 144.391 511.343 144.299 512.437 144.117C513.531 143.898 514.369 143.734 514.953 143.625L518.617 160.961C517.45 161.326 515.809 161.745 513.695 162.219C511.58 162.729 509.01 163.039 505.984 163.148C500.369 163.367 495.447 162.62 491.218 160.906C487.026 159.193 483.763 156.531 481.429 152.922C479.096 149.312 477.947 144.755 477.984 139.25V57.875ZM528.343 162V50H551.64V92.1094H552.351C553.372 89.849 554.849 87.5521 556.781 85.2187C558.75 82.849 561.302 80.8802 564.437 79.3125C567.609 77.7083 571.547 76.9063 576.25 76.9063C582.375 76.9063 588.026 78.5104 593.203 81.7188C598.38 84.8906 602.518 89.6849 605.617 96.1016C608.716 102.482 610.265 110.484 610.265 120.109C610.265 129.479 608.752 137.391 605.726 143.844C602.737 150.26 598.653 155.128 593.476 158.445C588.336 161.727 582.575 163.367 576.195 163.367C571.674 163.367 567.828 162.62 564.656 161.125C561.521 159.63 558.95 157.753 556.945 155.492C554.94 153.195 553.409 150.88 552.351 148.547H551.312V162H528.343ZM551.148 120C551.148 124.995 551.841 129.352 553.226 133.07C554.612 136.789 556.617 139.687 559.242 141.766C561.867 143.807 565.057 144.828 568.812 144.828C572.604 144.828 575.812 143.789 578.437 141.711C581.062 139.596 583.049 136.68 584.398 132.961C585.784 129.206 586.476 124.885 586.476 120C586.476 115.151 585.802 110.885 584.453 107.203C583.104 103.521 581.117 100.641 578.492 98.5625C575.867 96.4844 572.64 95.4453 568.812 95.4453C565.021 95.4453 561.812 96.4479 559.187 98.4531C556.599 100.458 554.612 103.302 553.226 106.984C551.841 110.667 551.148 115.005 551.148 120ZM643.603 163.586C638.244 163.586 633.468 162.656 629.275 160.797C625.083 158.901 621.765 156.112 619.322 152.43C616.916 148.711 615.713 144.081 615.713 138.539C615.713 133.872 616.57 129.953 618.283 126.781C619.997 123.609 622.33 121.057 625.283 119.125C628.236 117.193 631.59 115.734 635.346 114.75C639.137 113.766 643.111 113.073 647.267 112.672C652.153 112.161 656.09 111.687 659.08 111.25C662.07 110.776 664.239 110.083 665.588 109.172C666.937 108.26 667.611 106.911 667.611 105.125V104.797C667.611 101.333 666.517 98.6536 664.33 96.7578C662.179 94.862 659.116 93.9141 655.142 93.9141C650.95 93.9141 647.614 94.8437 645.135 96.7031C642.655 98.526 641.015 100.823 640.213 103.594L618.666 101.844C619.76 96.7396 621.911 92.3281 625.119 88.6094C628.327 84.8542 632.465 81.974 637.533 79.9687C642.637 77.9271 648.543 76.9063 655.252 76.9063C659.918 76.9063 664.385 77.4531 668.65 78.5469C672.952 79.6406 676.762 81.3359 680.08 83.6328C683.434 85.9297 686.077 88.8828 688.01 92.4922C689.942 96.0651 690.908 100.349 690.908 105.344V162H668.814V150.352H668.158C666.809 152.977 665.004 155.292 662.744 157.297C660.484 159.266 657.767 160.815 654.596 161.945C651.424 163.039 647.76 163.586 643.603 163.586ZM650.275 147.508C653.702 147.508 656.728 146.833 659.353 145.484C661.978 144.099 664.038 142.24 665.533 139.906C667.028 137.573 667.775 134.93 667.775 131.977V123.063C667.046 123.536 666.043 123.974 664.767 124.375C663.528 124.74 662.124 125.086 660.556 125.414C658.989 125.706 657.421 125.979 655.853 126.234C654.286 126.453 652.864 126.654 651.588 126.836C648.853 127.237 646.465 127.875 644.424 128.75C642.382 129.625 640.796 130.81 639.666 132.305C638.536 133.763 637.971 135.586 637.971 137.773C637.971 140.945 639.119 143.37 641.416 145.047C643.749 146.687 646.702 147.508 650.275 147.508ZM772.713 101.953L751.385 103.266C751.02 101.443 750.236 99.8021 749.033 98.3437C747.83 96.849 746.244 95.6641 744.275 94.7891C742.343 93.8776 740.028 93.4219 737.33 93.4219C733.721 93.4219 730.676 94.1875 728.197 95.7187C725.718 97.2135 724.479 99.2187 724.479 101.734C724.479 103.74 725.281 105.435 726.885 106.82C728.489 108.206 731.242 109.318 735.143 110.156L750.346 113.219C758.512 114.896 764.601 117.594 768.611 121.312C772.622 125.031 774.627 129.917 774.627 135.969C774.627 141.474 773.005 146.305 769.76 150.461C766.551 154.617 762.14 157.862 756.525 160.195C750.947 162.492 744.512 163.641 737.221 163.641C726.101 163.641 717.242 161.326 710.643 156.695C704.08 152.029 700.234 145.685 699.104 137.664L722.018 136.461C722.71 139.852 724.387 142.44 727.049 144.227C729.71 145.977 733.119 146.852 737.275 146.852C741.359 146.852 744.64 146.068 747.119 144.5C749.635 142.896 750.911 140.836 750.947 138.32C750.911 136.206 750.018 134.474 748.268 133.125C746.518 131.74 743.82 130.682 740.174 129.953L725.627 127.055C717.424 125.414 711.317 122.57 707.307 118.523C703.333 114.477 701.346 109.318 701.346 103.047C701.346 97.651 702.804 93.0026 705.721 89.1016C708.674 85.2005 712.812 82.1927 718.135 80.0781C723.494 77.9635 729.765 76.9063 736.947 76.9063C747.557 76.9063 755.906 79.1484 761.994 83.6328C768.119 88.1172 771.692 94.224 772.713 101.953Z" fill="#001C43"/>
</svg>
